<svg xmlns="http://www.w3.org/2000/svg" viewBox="0 0 1926.07 441.37">
  <path d="M815.21 272.48c15.55 3 42.84 8.2 46.59 10-9.62 3.12-18.6 7.72-27.73 11.95-6.13 2.83-12.65 3.55-19.23 4.13q-29.18 2.58-58.34 5.2c-7.1.63-14.2 1.26-21.32 1.76-3.67.26-3.7.1-4.06-3.49-.87-8.7-1.94-17.35-4.33-25.79a58.89 58.89 0 00-6.45-15.2 15.51 15.51 0 00-11.91-7.65c-1.68-.2-3.34-.52-5-.79M662.08 246.9c-11.25-1.19-22.49-2.44-33.8-3-12.31-.75-24.61-1.81-37-1.61-4.44.2-8.89.31-13.32.62a240.07 240.07 0 00-50.57 9.37 7.7 7.7 0 00-3.58 1.71c3.3 1.27 5.11 4.39 7.85 6.34 2.17 1.55 5.57 2.12 4.36 6.07 0 .09.2.28.33.38 2.05 1.6 3.1 3.91 4.06 6.17 2.91 6.88 5.67 13.83 8.45 20.76a8.32 8.32 0 001.76 3c3.52 3.45 4.32 8 4.38 12.52a24.44 24.44 0 003.17 10.87c1.37 2.68 2.39 2.44 4-.06 3.71-5.77 6.49-12.12 10.66-17.59 2.47-3.24 3-6.54 1-10s-1.95-4.26 1-7.11c1-1 1.27-1.68.29-2.87a16.75 16.75 0 01-3.36-7.48c-.77-3.7 0-5.23 3.51-6.66a27.3 27.3 0 019.09-2c1.87 0 3.74.11 5.6.06 4.76-.13 8.71 1.73 10.31 6.13s3.89 9.47-.58 13.9c-.63.63-1 1.27-.42 2.12a2.92 2.92 0 002.75 1.33c1.14-.08.94-1.12 1-1.87a65.75 65.75 0 00.51-10.95c-.15-3.54 2.19-5.63 4.48-7.59 3.92-3.35 8.56-3.36 13.37-2.39 3.92.79 7.9 1.29 11.83 2.08 2.43.49 4.79 1.63 5.42 4.18s1.35 5.12.28 7.84a37.79 37.79 0 00-1.16 5.48c-.34 1.52-.31 2.81 1.38 3.56 1 .44 1 1.3.82 2.27-1.46 6.61-2.85 13.24-4.35 19.84-.71 3.16.06 4.18 3.33 3.72 4.82-.68 9.68-1 14.52-1.5 12.25-1.26 24.47-2.74 36.71-4.05 2.29-.24 3.06-1.14 2.69-3.47a139.73 139.73 0 01-1.81-18.35c-.24-8.49.22-17 3-25.1 1.62-4.82 4.2-9.06 9.33-11-13.72-2-27.45-4.2-41.29-5.67zM411.9 313.48c10.16-6.93 20.62-13.38 31.17-19.7 16.22-9.7 32.67-19 49.64-27.29a195.59 195.59 0 0119.57-8.58c-2.23 5.54-2.23 11.28-1.45 17.08-1.72 1-3.5 1.9-4.31 4-1.3 3.34-2.31 6.86-5.38 9.19a2.8 2.8 0 00-.85 2.41c0 1.59 0 3.17.07 4.76-6.68 3-13.81 4.59-20.72 6.88-7.94 2.62-16.12 4.59-23.87 7.65s-15.74 4.42-23.39 7.27c-3.15 1.17-5.93-.27-8.8-1.06-3.85-1.09-7.58-2.46-11.68-2.61z" fill="#3B3B3B"/>
  <path d="M725.27 303c.43 2.63-.8 3.76-3.33 4-6.48.67-12.94 1.41-19.41 2.18-2.32.27-3.69-.38-4.09-2.92-1.92-12.23-2.41-24.45 0-36.67a27.52 27.52 0 015.53-12c2.75-3.45 4.38-3.64 7.7-.69 2.79 2.48 4.46 5.77 5.88 9.14 4.28 10.12 6.31 20.75 7.22 31.64.12 1.79.32 3.56.5 5.32zM532.79 287.06c-3 .42-5.33.62-7.58 1.07a2.69 2.69 0 01-3.37-1.85 56 56 0 01-3.18-12.11c-.41-2.34 2.33-4.15 4.58-4.84 4.61-1.42 6 1.45 7.84 4.56 7.47 13 12.83 26.79 17.2 41 1.68 5.47 1.12 6.1-4.67 6.06a96.2 96.2 0 00-12 .52c-1.62.2-3.1-.17-3.63-2s-2.18-3.62-.22-5.65c1.49-1.54 1-3.57.75-5.37a15.06 15.06 0 00-2.51-6.68 7.52 7.52 0 01.24-8.49c.84-1.14 1.19-2.62 2.42-3.48s2.34-1.52 4.13-2.74z" fill="#3B3B3B"/>
  <path d="M1852.6 374c4.37.14 8.72-.4 13.08-.53 13.45-.43 26.9-1.1 40.35-.93 6.7.08 13.3-.61 20-.74 0-3.36 0-6.73.08-10.09 0-.92 0-1.77-1-2.23a6.59 6.59 0 00-3.68-.28 15.14 15.14 0 01-2.92.29c-21.41-.28-42.8.95-64.21.58-4.16-.07-4.35-.1-4.23-4.17.46-14.94.83-29.89 1.21-44.84.14-5.51.17-11 .39-16.54.59-14.41.75-28.83 1.22-43.24.2-6.14.17-12.28.4-18.42.13-3.42.39-6.85.59-10.27.29-7.29.54-14.57.9-21.86.25-5.15.27-10.32.45-15.47.24-7.29.6-14.59.77-21.88.32-13.61 1-27.21 1.54-40.81.07-1.7.64-2.7 2.48-2.76a6.1 6.1 0 002-.5 2.74 2.74 0 001.71-2.52 2.43 2.43 0 00-1.82-2.38c-.74-.28-1.56-.37-2.32-.6-1.43-.42-1.55-1.57-1.47-2.79a1.81 1.81 0 011.91-1.82 31.11 31.11 0 004-.32 3 3 0 002.63-3 3.11 3.11 0 00-2.26-3 12.15 12.15 0 00-4.19-.77c-.8 0-1.69-.08-1.68-1.25 0-1 .62-1.33 1.52-1.52a13.28 13.28 0 005.25-1.82c3.22-2.28 4.77-5.33 4.22-9.18s-2.82-6-7.29-6.64c-10.59-1.5-21.2-2.79-31.8-4.15l-39.77-5.07c-5.4-.68-10.79-1.31-16.19-2-7-1.29-13.92-1.9-20.78.8a12.21 12.21 0 00-4.73 3.78c-.93 1.09-.69 2.33-.14 3.52 1.51 3.28 4.22 5.22 7.47 6.48 6 2.34 12.44 2.95 18.81 3.69 5.12.59 10.25 1.23 15.37 1.86 2.1.25 2.66.92 1.48 3.11-5.31 9.87-10.43 19.86-15.58 29.82q-13.32 25.74-26.6 51.49c-2.2 4.27-4.54 8.46-6.82 12.69-2.61 5.17-5.19 10.35-7.85 15.49-6.8 13.12-13.67 26.22-20.47 39.35q-16 30.84-32 61.7c-7.25 14-14.47 28-21.81 42-3.17 6-2 5-8.54 4.32-5-.5-9.93-.88-14.9-1.2-4.26-.28-8.53-.45-12.81-.55-2.09-.05-2.88-1-2.8-3q.51-12.39 1-24.79c0-.44 0-.89.06-1.33.19-8.72.2-17.45.61-26.16.5-10.94.91-21.87 1.09-32.81 0-2.12.54-4.23.5-6.38 0-1.65-.07-3.24-1.18-4.59 1.75-1.06 1.53-2.92 1.62-4.52.24-4 .19-8 .51-12 .5-6.29.36-12.63.66-18.93.63-13.24 1.42-26.46 2-39.69.22-4.53.14-9.07.57-13.6.19-1.92.42-3.32 2.78-3.3a2.31 2.31 0 002.53-2.23 2.19 2.19 0 00-2-2.64c-1.73-.36-3.12-1.12-2.58-3.24.49-1.92 2-1.28 3.29-1.17 2.38.19 4.38-1 4.52-2.75.18-2-1.31-3.21-4.16-3.45-1.41-.11-3.36.73-3.33-2.1.06-4.86 0-5 3.11-5.37 2-.22 3.67-1 3.71-3.1s-1.76-3-3.63-3.23c-6.38-.64-12.77-1.13-19.15-1.7-9.31-.84-18.61-1.72-27.91-2.53s-18.63-1.55-27.94-2.29c-9.5-.75-19-1.73-28.53-1.61a15.79 15.79 0 00-4.49.54c-.82.25-2 .21-2.1 1.28s1.13 1 1.82 1.28c4.36 1.72 9 2.2 13.58 2.74 8.84 1 17.7 1.87 26.55 2.8 2.58.27 2.88.88 1.52 3.23q-11 19-22 37.9c-4.48 7.69-9 15.35-13.52 23q-14.64 25.22-29.27 50.45c-3.16 5.45-6.24 11-9.36 16.43a5.27 5.27 0 01-1.54 2.13c-2.72 5.91-6.32 11.34-9.49 17-6.52 11.64-13.24 23.18-19.89 34.75-.66 1.16-1.4 2.27-2.11 3.4q-5.65 10-11.31 20c-2.33 4.09-4.74 8.14-7 12.26a3.49 3.49 0 01-3.19 2c-10.68.51-21.35 1.08-32 1.62-17 .86-34 1.29-51 2.54-2.74.2-5.51.55-8.21-.38-6.61-.07-13.11-1.31-19.67-1.85s-13.29-1.35-19.94-1.88c-13.59-1.09-27.21-1.84-40.79-3.13-38-3.6-75.73-9.47-113.63-13.91-39.51-4.64-78.83-10.64-118.14-16.65-12.52-1.92-25.07-3.58-37.6-5.37-1.06-.15-2.12-.35-3.17-.52a4 4 0 01-3.7-4.16c-.21-3.56-.43-7.12-.76-10.67-.25-2.75-1.06-3.15-5.26-3.32-2.21-.08-2.94 1-3.15 3-.28 2.83-.74 5.65-1.21 8.46-.57 3.46-1.83 4.28-5.34 3.74-11.56-1.74-23-4.22-34.45-6.42-16.07-3.08-31.65-7.87-47.22-12.77a184.8 184.8 0 00-29.4-6.86 10.23 10.23 0 01-1.76-.55c-9.62 3.12-18.6 7.72-27.73 11.95-6.13 2.83-12.65 3.55-19.23 4.13q-29.18 2.58-58.34 5.2c-7.1.63-14.2 1.26-21.32 1.76-3.67.26-3.7.1-4.06-3.49-.87-8.7-1.94-17.35-4.33-25.79a58.89 58.89 0 00-6.45-15.2 15.51 15.51 0 00-11.91-7.65c-1.68-.2-3.34-.52-5-.79-5.13 2-7.71 6.2-9.33 11-2.73 8.13-3.19 16.61-3 25.1a139.73 139.73 0 001.92 18.35c.37 2.33-.4 3.23-2.69 3.47-12.24 1.31-24.46 2.79-36.71 4.05-4.84.5-9.7.82-14.52 1.5-3.27.46-4-.56-3.33-3.72 1.5-6.6 2.89-13.23 4.35-19.84.22-1 .17-1.83-.82-2.27-1.69-.75-1.72-2-1.38-3.56a37.79 37.79 0 011.16-5.48c1.07-2.72.34-5.33-.28-7.84s-3-3.69-5.42-4.18c-3.93-.79-7.91-1.29-11.83-2.08-4.81-1-9.45-1-13.37 2.39-2.29 2-4.63 4-4.48 7.59a65.75 65.75 0 01-.51 10.95c-.1.75.1 1.79-1 1.87a2.92 2.92 0 01-2.75-1.33c-.55-.85-.21-1.49.42-2.12 4.47-4.43 2.22-9.41.58-13.9s-5.55-6.26-10.31-6.13c-1.86 0-3.73 0-5.6-.06a27.3 27.3 0 00-9.09 2c-3.54 1.43-4.28 3-3.51 6.66a16.75 16.75 0 003.36 7.48c1 1.19.74 1.87-.29 2.87-2.92 2.85-3 3.53-1 7.11s1.43 6.76-1 10c-4.17 5.47-7 11.82-10.66 17.59-1.61 2.5-2.63 2.74-4 .06a24.44 24.44 0 01-3.26-10.84c-.06-4.54-.86-9.07-4.38-12.52a8.32 8.32 0 01-1.76-3c-2.78-6.93-5.54-13.88-8.45-20.76-1-2.26-2-4.57-4.06-6.17-.13-.1-.36-.29-.33-.38 1.21-3.95-2.19-4.52-4.36-6.07-2.74-1.95-4.55-5.07-7.85-6.34-4.47-.55-8.16 1.22-11.57 3.87-2.23 5.54-2.23 11.28-1.45 17.08.36-.26.73-.51 1.08-.77-.35.26-.72.51-1.08.77-1.72 1-3.5 1.9-4.31 4-1.3 3.34-2.31 6.86-5.38 9.19a2.8 2.8 0 00-.85 2.41c0 1.59 0 3.17.07 4.76-6.68 3-13.81 4.59-20.72 6.88-7.94 2.62-16.12 4.59-23.87 7.65s-15.74 4.42-23.39 7.27c-3.15 1.17-5.93-.27-8.8-1.06-3.85-1.07-7.63-2.43-11.68-2.58a15.32 15.32 0 00-6.22 2.93 12.47 12.47 0 01-4.13 1.79c-25.64 7.66-51.91 12.51-78.1 17.76-11.86 2.37-23.7 4.87-35.55 7.3a12 12 0 01-1.33.12c-4.87 1.06-9.73 2.16-14.62 3.17-2.2.45-4.17-.76-6.24-1.22-2.95-.66-5.84-1.59-8.94-1.31-2.61.23-3.53 1.19-3.09 3.79.32 1.92-.37 2.73-2.21 3.17-39.8 9.43-79.48 19.32-118.77 30.68-12.92 3.73-25.72 7.92-38.29 12.77-.9.35-1.86.57-2.8.85-10.21 4.13-20.57 8.09-30.7 12.43-15.25 6.5-30.43 13.18-44.29 22.44a94.83 94.83 0 00-8 6.23c-2.58 2.1-2.53 2.75-.58 5.53h1918q0-17.1-.08-34.21c-6.84.9-13.72.29-20.58.49a10 10 0 01-5.56-1.63c-9.93-6-20.92-9.51-31.66-13.6a163.14 163.14 0 00-16.11-5.74 2.44 2.44 0 01-2.11-2.85c.15-2.58.08-5.17.06-7.76.04-1.76.84-2.67 2.64-2.6zm-1309-53a96.2 96.2 0 00-12 .52c-1.62.2-3.1-.17-3.63-2s-2.18-3.62-.22-5.65c1.49-1.54 1-3.57.75-5.37a15.06 15.06 0 00-2.51-6.68 7.52 7.52 0 01.24-8.49c.84-1.14 1.19-2.62 2.42-3.48s2.33-1.59 4.13-2.81c-3 .42-5.33.62-7.58 1.07a2.69 2.69 0 01-3.37-1.85 56 56 0 01-3.18-12.11c-.41-2.34 2.33-4.15 4.58-4.84 4.61-1.42 6 1.45 7.84 4.56 7.47 13 12.83 26.79 17.2 41 1.73 5.53 1.13 6.13-4.66 6.13zm178.33-14c-6.48.67-12.94 1.41-19.41 2.18-2.32.27-3.69-.38-4.09-2.92-1.92-12.23-2.41-24.45 0-36.67a27.52 27.52 0 015.53-12c2.75-3.45 4.38-3.64 7.7-.69 2.79 2.48 4.46 5.77 5.88 9.14 4.28 10.12 6.31 20.75 7.22 31.64.15 1.78.35 3.55.53 5.32.41 2.64-.82 3.77-3.35 4z" fill="#3B3B3B"/>
  <path d="M815.21 272.48c15.55 3 42.84 8.2 46.59 10-9.62 3.12-18.6 7.72-27.73 11.95-6.13 2.83-12.65 3.55-19.23 4.13q-29.18 2.58-58.34 5.2c-7.1.63-14.2 1.26-21.32 1.76-3.67.26-3.7.1-4.06-3.49-.87-8.7-1.94-17.35-4.33-25.79a58.89 58.89 0 00-6.45-15.2 15.51 15.51 0 00-11.91-7.65c-1.68-.2-3.34-.52-5-.79M662.08 246.9c-11.25-1.19-22.49-2.44-33.8-3-12.31-.75-24.61-1.81-37-1.61-4.44.2-8.89.31-13.32.62a240.07 240.07 0 00-50.57 9.37 7.7 7.7 0 00-3.58 1.71c3.3 1.27 5.11 4.39 7.85 6.34 2.17 1.55 5.57 2.12 4.36 6.07 0 .09.2.28.33.38 2.05 1.6 3.1 3.91 4.06 6.17 2.91 6.88 5.67 13.83 8.45 20.76a8.32 8.32 0 001.76 3c3.52 3.45 4.32 8 4.38 12.52a24.44 24.44 0 003.17 10.87c1.37 2.68 2.39 2.44 4-.06 3.71-5.77 6.49-12.12 10.66-17.59 2.47-3.24 3-6.54 1-10s-1.95-4.26 1-7.11c1-1 1.27-1.68.29-2.87a16.75 16.75 0 01-3.36-7.48c-.77-3.7 0-5.23 3.51-6.66a27.3 27.3 0 019.09-2c1.87 0 3.74.11 5.6.06 4.76-.13 8.71 1.73 10.31 6.13s3.89 9.47-.58 13.9c-.63.63-1 1.27-.42 2.12a2.92 2.92 0 002.75 1.33c1.14-.08.94-1.12 1-1.87a65.75 65.75 0 00.51-10.95c-.15-3.54 2.19-5.63 4.48-7.59 3.92-3.35 8.56-3.36 13.37-2.39 3.92.79 7.9 1.29 11.83 2.08 2.43.49 4.79 1.63 5.42 4.18s1.35 5.12.28 7.84a37.79 37.79 0 00-1.16 5.48c-.34 1.52-.31 2.81 1.38 3.56 1 .44 1 1.3.82 2.27-1.46 6.61-2.85 13.24-4.35 19.84-.71 3.16.06 4.18 3.33 3.72 4.82-.68 9.68-1 14.52-1.5 12.25-1.26 24.47-2.74 36.71-4.05 2.29-.24 3.06-1.14 2.69-3.47a139.73 139.73 0 01-1.81-18.35c-.24-8.49.22-17 3-25.1 1.62-4.82 4.2-9.06 9.33-11-13.72-2-27.45-4.2-41.29-5.67zM411.9 313.48c10.16-6.93 20.62-13.38 31.17-19.7 16.22-9.7 32.67-19 49.64-27.29a195.59 195.59 0 0119.57-8.58c-2.23 5.54-2.23 11.28-1.45 17.08-1.72 1-3.5 1.9-4.31 4-1.3 3.34-2.31 6.86-5.38 9.19a2.8 2.8 0 00-.85 2.41c0 1.59 0 3.17.07 4.76-6.68 3-13.81 4.59-20.72 6.88-7.94 2.62-16.12 4.59-23.87 7.65s-15.74 4.42-23.39 7.27c-3.15 1.17-5.93-.27-8.8-1.06-3.85-1.09-7.58-2.46-11.68-2.61z" fill="#E5D188"/>
  <path d="M725.27 303c.43 2.63-.8 3.76-3.33 4-6.48.67-12.94 1.41-19.41 2.18-2.32.27-3.69-.38-4.09-2.92-1.92-12.23-2.41-24.45 0-36.67a27.52 27.52 0 015.53-12c2.75-3.45 4.38-3.64 7.7-.69 2.79 2.48 4.46 5.77 5.88 9.14 4.28 10.12 6.31 20.75 7.22 31.64.12 1.79.32 3.56.5 5.32zM532.79 287.06c-3 .42-5.33.62-7.58 1.07a2.69 2.69 0 01-3.37-1.85 56 56 0 01-3.18-12.11c-.41-2.34 2.33-4.15 4.58-4.84 4.61-1.42 6 1.45 7.84 4.56 7.47 13 12.83 26.79 17.2 41 1.68 5.47 1.12 6.1-4.67 6.06a96.2 96.2 0 00-12 .52c-1.62.2-3.1-.17-3.63-2s-2.18-3.62-.22-5.65c1.49-1.54 1-3.57.75-5.37a15.06 15.06 0 00-2.51-6.68 7.52 7.52 0 01.24-8.49c.84-1.14 1.19-2.62 2.42-3.48s2.34-1.52 4.13-2.74z" fill="#E5D188"/>
  <path d="M1852.6 374c4.37.14 8.72-.4 13.08-.53 13.45-.43 26.9-1.1 40.35-.93 6.7.08 13.3-.61 20-.74 0-3.36 0-6.73.08-10.09 0-.92 0-1.77-1-2.23a6.59 6.59 0 00-3.68-.28 15.14 15.14 0 01-2.92.29c-21.41-.28-42.8.95-64.21.58-4.16-.07-4.35-.1-4.23-4.17.46-14.94.83-29.89 1.21-44.84.14-5.51.17-11 .39-16.54.59-14.41.75-28.83 1.22-43.24.2-6.14.17-12.28.4-18.42.13-3.42.39-6.85.59-10.27.29-7.29.54-14.57.9-21.86.25-5.15.27-10.32.45-15.47.24-7.29.6-14.59.77-21.88.32-13.61 1-27.21 1.54-40.81.07-1.7.64-2.7 2.48-2.76a6.1 6.1 0 002-.5 2.74 2.74 0 001.71-2.52 2.43 2.43 0 00-1.82-2.38c-.74-.28-1.56-.37-2.32-.6-1.43-.42-1.55-1.57-1.47-2.79a1.81 1.81 0 011.91-1.82 31.11 31.11 0 004-.32 3 3 0 002.63-3 3.11 3.11 0 00-2.26-3 12.15 12.15 0 00-4.19-.77c-.8 0-1.69-.08-1.68-1.25 0-1 .62-1.33 1.52-1.52a13.28 13.28 0 005.25-1.82c3.22-2.28 4.77-5.33 4.22-9.18s-2.82-6-7.29-6.64c-10.59-1.5-21.2-2.79-31.8-4.15l-39.77-5.07c-5.4-.68-10.79-1.31-16.19-2-7-1.29-13.92-1.9-20.78.8a12.21 12.21 0 00-4.73 3.78c-.93 1.09-.69 2.33-.14 3.52 1.51 3.28 4.22 5.22 7.47 6.48 6 2.34 12.44 2.95 18.81 3.69 5.12.59 10.25 1.23 15.37 1.86 2.1.25 2.66.92 1.48 3.11-5.31 9.87-10.43 19.86-15.58 29.82q-13.32 25.74-26.6 51.49c-2.2 4.27-4.54 8.46-6.82 12.69-2.61 5.17-5.19 10.35-7.85 15.49-6.8 13.12-13.67 26.22-20.47 39.35q-16 30.84-32 61.7c-7.25 14-14.47 28-21.81 42-3.17 6-2 5-8.54 4.32-5-.5-9.93-.88-14.9-1.2-4.26-.28-8.53-.45-12.81-.55-2.09-.05-2.88-1-2.8-3q.51-12.39 1-24.79c0-.44 0-.89.06-1.33.19-8.72.2-17.45.61-26.16.5-10.94.91-21.87 1.09-32.81 0-2.12.54-4.23.5-6.38 0-1.65-.07-3.24-1.18-4.59 1.75-1.06 1.53-2.92 1.62-4.52.24-4 .19-8 .51-12 .5-6.29.36-12.63.66-18.93.63-13.24 1.42-26.46 2-39.69.22-4.53.14-9.07.57-13.6.19-1.92.42-3.32 2.78-3.3a2.31 2.31 0 002.53-2.23 2.19 2.19 0 00-2-2.64c-1.73-.36-3.12-1.12-2.58-3.24.49-1.92 2-1.28 3.29-1.17 2.38.19 4.38-1 4.52-2.75.18-2-1.31-3.21-4.16-3.45-1.41-.11-3.36.73-3.33-2.1.06-4.86 0-5 3.11-5.37 2-.22 3.67-1 3.71-3.1s-1.76-3-3.63-3.23c-6.38-.64-12.77-1.13-19.15-1.7-9.31-.84-18.61-1.72-27.91-2.53s-18.63-1.55-27.94-2.29c-9.5-.75-19-1.73-28.53-1.61a15.79 15.79 0 00-4.49.54c-.82.25-2 .21-2.1 1.28s1.13 1 1.82 1.28c4.36 1.72 9 2.2 13.58 2.74 8.84 1 17.7 1.87 26.55 2.8 2.58.27 2.88.88 1.52 3.23q-11 19-22 37.9c-4.48 7.69-9 15.35-13.52 23q-14.64 25.22-29.27 50.45c-3.16 5.45-6.24 11-9.36 16.43a5.27 5.27 0 01-1.54 2.13c-2.72 5.91-6.32 11.34-9.49 17-6.52 11.64-13.24 23.18-19.89 34.75-.66 1.16-1.4 2.27-2.11 3.4q-5.65 10-11.31 20c-2.33 4.09-4.74 8.14-7 12.26a3.49 3.49 0 01-3.19 2c-10.68.51-21.35 1.08-32 1.62-17 .86-34 1.29-51 2.54-2.74.2-5.51.55-8.21-.38-6.61-.07-13.11-1.31-19.67-1.85s-13.29-1.35-19.94-1.88c-13.59-1.09-27.21-1.84-40.79-3.13-38-3.6-75.73-9.47-113.63-13.91-39.51-4.64-78.83-10.64-118.14-16.65-12.52-1.92-25.07-3.58-37.6-5.37-1.06-.15-2.12-.35-3.17-.52a4 4 0 01-3.7-4.16c-.21-3.56-.43-7.12-.76-10.67-.25-2.75-1.06-3.15-5.26-3.32-2.21-.08-2.94 1-3.15 3-.28 2.83-.74 5.65-1.21 8.46-.57 3.46-1.83 4.28-5.34 3.74-11.56-1.74-23-4.22-34.45-6.42-16.07-3.08-31.65-7.87-47.22-12.77a184.8 184.8 0 00-29.4-6.86 10.23 10.23 0 01-1.76-.55c-9.62 3.12-18.6 7.72-27.73 11.95-6.13 2.83-12.65 3.55-19.23 4.13q-29.18 2.58-58.34 5.2c-7.1.63-14.2 1.26-21.32 1.76-3.67.26-3.7.1-4.06-3.49-.87-8.7-1.94-17.35-4.33-25.79a58.89 58.89 0 00-6.45-15.2 15.51 15.51 0 00-11.91-7.65c-1.68-.2-3.34-.52-5-.79-5.13 2-7.71 6.2-9.33 11-2.73 8.13-3.19 16.61-3 25.1a139.73 139.73 0 001.92 18.35c.37 2.33-.4 3.23-2.69 3.47-12.24 1.31-24.46 2.79-36.71 4.05-4.84.5-9.7.82-14.52 1.5-3.27.46-4-.56-3.33-3.72 1.5-6.6 2.89-13.23 4.35-19.84.22-1 .17-1.83-.82-2.27-1.69-.75-1.72-2-1.38-3.56a37.79 37.79 0 011.16-5.48c1.07-2.72.34-5.33-.28-7.84s-3-3.69-5.42-4.18c-3.93-.79-7.91-1.29-11.83-2.08-4.81-1-9.45-1-13.37 2.39-2.29 2-4.63 4-4.48 7.59a65.75 65.75 0 01-.51 10.95c-.1.75.1 1.79-1 1.87a2.92 2.92 0 01-2.75-1.33c-.55-.85-.21-1.49.42-2.12 4.47-4.43 2.22-9.41.58-13.9s-5.55-6.26-10.31-6.13c-1.86 0-3.73 0-5.6-.06a27.3 27.3 0 00-9.09 2c-3.54 1.43-4.28 3-3.51 6.66a16.75 16.75 0 003.36 7.48c1 1.19.74 1.87-.29 2.87-2.92 2.85-3 3.53-1 7.11s1.43 6.76-1 10c-4.17 5.47-7 11.82-10.66 17.59-1.61 2.5-2.63 2.74-4 .06a24.44 24.44 0 01-3.26-10.84c-.06-4.54-.86-9.07-4.38-12.52a8.32 8.32 0 01-1.76-3c-2.78-6.93-5.54-13.88-8.45-20.76-1-2.26-2-4.57-4.06-6.17-.13-.1-.36-.29-.33-.38 1.21-3.95-2.19-4.52-4.36-6.07-2.74-1.95-4.55-5.07-7.85-6.34-4.47-.55-8.16 1.22-11.57 3.87-2.23 5.54-2.23 11.28-1.45 17.08.36-.26.73-.51 1.08-.77-.35.26-.72.51-1.08.77-1.72 1-3.5 1.9-4.31 4-1.3 3.34-2.31 6.86-5.38 9.19a2.8 2.8 0 00-.85 2.41c0 1.59 0 3.17.07 4.76-6.68 3-13.81 4.59-20.72 6.88-7.94 2.62-16.12 4.59-23.87 7.65s-15.74 4.42-23.39 7.27c-3.15 1.17-5.93-.27-8.8-1.06-3.85-1.07-7.63-2.43-11.68-2.58a15.32 15.32 0 00-6.22 2.93 12.47 12.47 0 01-4.13 1.79c-25.64 7.66-51.91 12.51-78.1 17.76-11.86 2.37-23.7 4.87-35.55 7.3a12 12 0 01-1.33.12c-4.87 1.06-9.73 2.16-14.62 3.17-2.2.45-4.17-.76-6.24-1.22-2.95-.66-5.84-1.59-8.94-1.31-2.61.23-3.53 1.19-3.09 3.79.32 1.92-.37 2.73-2.21 3.17-39.8 9.43-79.48 19.32-118.77 30.68-12.92 3.73-25.72 7.92-38.29 12.77-.9.35-1.86.57-2.8.85-10.21 4.13-20.57 8.09-30.7 12.43-15.25 6.5-30.43 13.18-44.29 22.44a94.83 94.83 0 00-8 6.23c-2.58 2.1-2.53 2.75-.58 5.53h1918q0-17.1-.08-34.21c-6.84.9-13.72.29-20.58.49a10 10 0 01-5.56-1.63c-9.93-6-20.92-9.51-31.66-13.6a163.14 163.14 0 00-16.11-5.74 2.44 2.44 0 01-2.11-2.85c.15-2.58.08-5.17.06-7.76.04-1.76.84-2.67 2.64-2.6zm-1309-53a96.2 96.2 0 00-12 .52c-1.62.2-3.1-.17-3.63-2s-2.18-3.62-.22-5.65c1.49-1.54 1-3.57.75-5.37a15.06 15.06 0 00-2.51-6.68 7.52 7.52 0 01.24-8.49c.84-1.14 1.19-2.62 2.42-3.48s2.33-1.59 4.13-2.81c-3 .42-5.33.62-7.58 1.07a2.69 2.69 0 01-3.37-1.85 56 56 0 01-3.18-12.11c-.41-2.34 2.33-4.15 4.58-4.84 4.61-1.42 6 1.45 7.84 4.56 7.47 13 12.83 26.79 17.2 41 1.73 5.53 1.13 6.13-4.66 6.13zm178.33-14c-6.48.67-12.94 1.41-19.41 2.18-2.32.27-3.69-.38-4.09-2.92-1.92-12.23-2.41-24.45 0-36.67a27.52 27.52 0 015.53-12c2.75-3.45 4.38-3.64 7.7-.69 2.79 2.48 4.46 5.77 5.88 9.14 4.28 10.12 6.31 20.75 7.22 31.64.15 1.78.35 3.55.53 5.32.41 2.64-.82 3.77-3.35 4z" fill="#3B3B3B"/>
</svg>
